#!OML:ASF F:\VICON\USERDATA\INSTALL\rory3\rory3.ASF
:FULLY-SPECIFIED
:DEGREES
18
root 0.7988104938797563 18.325832731115153 -13.615262715578874 1.1405553174634302 -2.4727287677981282 -2.2884870166749343
lfemur -22.10409393591527 -1.1576006819871698 -20.42610930027711
ltibia 26.473754386897657
lfoot 5.346772729786471 -5.619119920802456
ltoes -4.56980427030543
rfemur 3.2903892314494563 3.3858123195544927 27.293516331542246
rtibia 70.80261119170588
rfoot 29.85191896136983 2.0588015639887214
rtoes 10.83630886302059
lowerback 10.706746138246855 2.0845421887721347 2.7881704938762057
upperback -1.620783096316586 3.2694237929850334 0.8235112555005903
thorax -7.562709985549717 1.4775868398756609 -1.3337053341418998
lowerneck -19.077161084911133 -3.873839614970393 -1.853421766963431
upperneck 19.673780254207756 -4.94880218588443 1.1821114517955207
head 9.226238970100205 -2.425847591832358 0.08949655250928917
lclavicle -2.2630160730071198e-15 6.838100326925943e-16
lhumerus -54.86677246064633 3.2749593495267932 85.67138390887408
lradius 55.975529656639196
lwrist 13.3464259981176
lhand -24.586314442018548 10.411203749879643
lfingers 7.125019999999999
lthumb 1.9110691807670255 40.39077540881071
rclavicle -2.2630160730071198e-15 6.838100326925943e-16
rhumerus -40.42376734023571 -4.685849598990312 -88.34509921704507
rradius 68.10701111899027
rwrist -2.1777260641172904
rhand -17.286171648518568 34.494651360741884
rfingers 7.125019999999999
rthumb 8.95911968933636 4.68947075722577
19
root 0.8369837263278933 18.479778788937214 -12.676647578212863 0.6817662676367813 -1.8680331682785152 -1.1687896855331124
lfemur -18.221373869169213 -1.0675936670034814 -22.595199739952225
ltibia 27.84109576121158
lfoot 1.6675750286225353 -5.1049538030222195
ltoes -5.72226454732893
rfemur -5.249991400482058 2.54054566134034 25.710988363669916
rtibia 84.60473661229729
rfoot 21.63328449506836 -2.673614925574016
rtoes 9.171102580159623
lowerback 12.04569480249462 1.838896785308307 1.3332831484542311
upperback -1.5574764583736596 2.775427012123842 0.6035774610532063
thorax -8.227267910991058 1.2802579398720653 -0.536905328766607
lowerneck -18.451615797898032 -3.582644458987561 -1.8035674435047904
upperneck 17.956166907886455 -4.597324423331143 1.2415514036614272
head 8.698099886599731 -2.229039587527396 0.1415890805918179
lclavicle -2.26301608779955e-15 6.838100572762385e-16
lhumerus -52.607567582477856 -0.04366850994241478 87.74025016470662
lradius 59.21418099138205
lwrist 15.315907461174337
lhand -24.71743353198915 12.98531932425981
lfingers 7.125019999999999
lthumb 1.7844835215790995 42.96097569778634
rclavicle -2.26301608779955e-15 6.838100572762385e-16
rhumerus -42.57664945476785 -5.038717945493846 -88.08580578083054
rradius 66.94383865428867
rwrist -2.4527012749314125
rhand -16.930920351671865 27.362066596553785
rfingers 7.125019999999999
rthumb 9.301964680859495 -2.386978559766823
20
root 0.854514480296858 18.461118677944373 -11.795997847141889 0.12965689669285052 -0.9941897413475429 -0.5498014845972687
lfemur -14.733534006879887 -1.5897247939931216 -23.803181451852904
ltibia 28.625817427595095
lfoot -1.7170482745074673 -4.454330502029454
ltoes -1.066043692246427
rfemur -13.76967524076802 1.1492287713797193 24.756759974631947
rtibia 92.8343964156046
rfoot 11.987527347724173 -8.050638444425726
rtoes 5.960530740215235
lowerback 12.382760112104192 1.4454541561131178 0.4306380523812259
upperback -0.4378465138777989 2.119717086218315 0.6088375714181833
thorax -7.516860273892474 1.0045329761468804 0.18632524600888867
lowerneck -19.716015873159606 -3.4256670596061642 -1.6836919986808134
upperneck 17.460004928238405 -4.308746887388548 1.004863102530173
head 8.703962536270081 -2.104077680004949 0.04722826773067257
lclavicle -2.2630161214190954e-15 6.838100496353678e-16
lhumerus -48.70202548113511 -0.933514609991537 88.16336948106186
lradius 61.45871741587237
lwrist 16.935236261597534
lhand -26.066703056298802 8.582882988030775
lfingers 7.125019999999999
lthumb 0.4812859697315844 38.56712316345323
rclavicle -2.2630161214190954e-15 6.838100496353678e-16
rhumerus -41.67636041358396 -7.254444025200521 -87.27529602148302
rradius 64.31005581454698
rwrist 0.72299565964473
rhand -16.665283172429962 29.496217397028726
rfingers 7.125019999999999
rthumb 9.558283799787777 -0.2601839739372769
21
root 0.8290312933917735 18.390964329301518 -10.104039045858636 0.01802712265108186 -0.409592684682817 -0.16980531509808117
lfemur -11.93088590963069 -1.6409855553738129 -25.252771368584014
ltibia 29.660847627611222
lfoot -3.5956446686801504 -3.2648443163611987
ltoes -2.120187852535195
rfemur -20.108219012364472 1.2852560363046033 24.03397012984667
rtibia 95.5203620626884
rfoot 5.769552630278234 -9.56160417091481
rtoes 10.239572830623253
lowerback 12.812360775897178 0.9332615546681113 -0.28721855542377694
upperback -0.2635123747924772 1.4772908518831678 0.670935768527865
thorax -7.4933931098952415 0.7369767802286133 0.7600900109780426
lowerneck -18.920723402871545 -3.173221711311226 -1.8368123967493928
upperneck 17.208722577475235 -4.096688747077774 1.1333613110540335
head 8.52328617341322 -1.9512824998510008 0.15602796036337202
lclavicle -2.2629794665601385e-15 6.838169298555842e-16
lhumerus -44.55827566848023 -3.209595901535224 89.09031293733636
lradius 63.69404079981238
lwrist 18.035559141084644
lhand -26.44926634646376 10.918813882520642
lfingers 7.125019999999999
lthumb 0.11680370028567688 40.779121865382805
rclavicle -2.261906942426649e-15 6.845874980188848e-16
rhumerus -43.63662439837617 -8.914587191717358 -86.69388328706174
rradius 63.70566792551806
rwrist 1.4332844162770288
rhand -16.801112197736387 30.238958115894757
rfingers 7.125019999999999
rthumb 9.38480170909816 0.16022552506089727
22
root 0.8014351543464416 18.261821233132988 -8.538980155064406 0.20162402976587235 0.3224882486950691 0.09121087211429568
lfemur -9.532987851974793 -1.4048588675895166 -26.396389626192807
ltibia 30.855215732394527
lfoot -4.492362550734459 -2.468757769930556
ltoes -4.514568774025962
rfemur -25.50830024856884 2.2606568807648015 23.254728664048525
rtibia 93.43927120923627
rfoot 0.3192831282883293 -8.414970773070069
rtoes 5.319356051525837
lowerback 13.160479379551612 0.4865445208218704 -0.8633887174085404
upperback -0.1696044314932082 0.7667185061888586 0.8169900882446786
thorax -7.482498615871326 0.40373115157184275 1.4037902435810679
lowerneck -18.611206235640335 -3.006046531321259 -1.9788229968539572
upperneck 16.983818569924548 -3.8418732306486563 1.0525020096465623
head 8.408103695085176 -1.830870189811787 0.17093211180209772
lclavicle -2.2624809979240627e-15 6.841714484125384e-16
lhumerus -40.146499104202164 -6.20130083552179 89.88708807516964
lradius 66.19360420569446
lwrist 18.57499431428658
lhand -26.872439232124176 11.046965382512717
lfingers 7.125019999999999
lthumb -0.14526355997916945 41.3020226307302
rclavicle -2.2620883416965873e-15 6.844601900117651e-16
rhumerus -45.69390895000333 -9.566281259704578 -86.39554103988948
rradius 64.4535666847263
rwrist 0.5695701190696671
rhand -17.246703641839982 31.015339949234292
rfingers 7.125019999999999
rthumb 8.935443897531714 0.5583405265388058
